# xmcd
#
# Track frame offsets:
#	150
#	14757
#	33587
#	47600
#	63364
#	76475
#	98879
#	111887
#	132201
#	139628
#
# Disc length: 2087 seconds
#
# Revision: 0
# Processed by: cddbd v1.5.2PL0 Copyright (c) Steve Scherf et al.
# Submitted via: audiograbber 1.83.01
#
DISCID=8508250a
DTITLE=John Denver - Memories Of A Country Boy
DYEAR=2004
DGENRE=
TTITLE0=Take Me Home, Country Road
TTITLE1=Rocky Mountain High
TTITLE2=Anni's Song
TTITLE3=Higher Ground
TTITLE4=Eagle and The Hawk
TTITLE5=Sunshine On My Shoulders
TTITLE6=The Flower That Shattered The Stone
TTITLE7=Earth Day Everyday8
TTITLE8=Deal With The Ladies
TTITLE9=Calypso
EXTD=
EXTT0=
EXTT1=
EXTT2=
EXTT3=
EXTT4=
EXTT5=
EXTT6=
EXTT7=
EXTT8=
EXTT9=
PLAYORDER=
